<?xml version="1.0" standalone="no"?>
<!DOCTYPE svg PUBLIC "-//W3C//DTD SVG 20010904//EN"
 "http://www.w3.org/TR/2001/REC-SVG-20010904/DTD/svg10.dtd">
<svg version="1.0" xmlns="http://www.w3.org/2000/svg"
 width="1083.000000pt" height="1083.000000pt" viewBox="0 0 1083.000000 1083.000000"
 preserveAspectRatio="xMidYMid meet">
<metadata>
Created by potrace 1.11, written by Peter Selinger 2001-2013
</metadata>
<g transform="translate(0.000000,1083.000000) scale(0.100000,-0.100000)"
fill="#000000" stroke="none">
<path d="M710 6115 l0 -1745 213 2 212 3 0 758 0 757 822 0 823 0 1 23 c1 21
1 319 -1 345 0 9 -171 12 -823 12 l-822 0 0 598 0 599 926 -1 926 -1 1 198 1
197 -1140 0 -1139 0 0 -1745z"/>
<path d="M8427 6924 c-1 -1 -42 -4 -92 -8 -115 -8 -154 -14 -240 -36 -206 -53
-365 -141 -511 -285 -107 -105 -163 -181 -225 -305 -33 -67 -99 -238 -98 -258
0 -4 -5 -27 -11 -52 -50 -214 -45 -529 10 -750 100 -394 341 -683 687 -821 80
-32 202 -64 283 -76 105 -15 398 -9 490 11 256 53 493 182 631 342 19 21 42
48 52 59 33 36 106 152 137 217 27 60 70 172 70 187 0 5 -387 7 -411 2 -3 0
-14 -20 -25 -43 -31 -71 -100 -171 -158 -228 -150 -147 -348 -220 -586 -215
-405 9 -693 243 -774 630 -8 39 -18 102 -21 141 l-7 71 993 1 c547 0 1000 1
1007 1 26 2 11 357 -22 511 -101 468 -451 802 -923 881 -58 9 -251 27 -256 23z
m226 -363 c162 -42 281 -115 387 -237 89 -102 161 -283 176 -442 l7 -72 -793
0 -792 0 6 53 c8 80 43 203 78 281 87 192 223 318 425 397 122 47 363 57 506
20z"/>
<path d="M5647 6914 c-2 -2 -21 -6 -43 -10 -555 -84 -935 -507 -991 -1104 -18
-186 -5 -401 34 -555 8 -33 16 -67 18 -75 8 -41 78 -206 115 -271 177 -313
457 -502 835 -564 93 -15 335 -18 415 -4 30 5 66 11 80 13 90 13 252 70 355
126 190 103 359 280 454 474 48 98 84 196 75 205 -3 3 -95 6 -205 6 l-200 1
-35 -71 c-95 -189 -237 -313 -434 -379 -92 -30 -137 -37 -260 -39 -257 -4
-445 67 -606 228 -70 70 -89 97 -132 186 -61 127 -90 235 -96 365 l-4 61 992
-1 c545 -1 997 0 1004 3 10 3 12 40 11 160 -2 218 -14 301 -70 477 -107 341
-376 609 -715 714 -74 23 -87 25 -199 45 -69 12 -388 19 -398 9z m333 -338
c106 -19 235 -71 314 -125 77 -52 163 -151 218 -251 48 -88 98 -268 98 -356
l0 -34 -791 0 -791 0 6 60 c8 70 47 210 78 278 109 237 329 399 583 429 22 3
41 6 43 8 5 5 205 -3 242 -9z"/>
<path d="M3239 6868 c-1 -2 -2 -564 -3 -1250 l-1 -1248 202 0 203 0 1 723 c0
397 2 740 4 762 20 219 76 368 176 474 74 77 205 140 327 157 26 4 137 7 247
8 l200 1 0 188 0 188 -205 -1 c-163 -1 -222 -5 -287 -20 -179 -42 -330 -141
-426 -280 l-31 -45 -7 40 c-4 22 -15 90 -24 150 -9 61 -19 120 -22 133 -5 22
-7 22 -179 22 -96 0 -175 -1 -175 -2z"/>
<path d="M5590 3693 l0 -238 248 0 c136 -1 249 3 252 6 3 4 5 110 5 236 l0
228 -253 3 -252 2 0 -237z"/>
<path d="M8910 3693 l0 -238 248 0 c136 -1 249 2 252 6 3 4 5 110 5 236 l0
228 -253 3 -252 2 0 -237z"/>
<path d="M767 3783 c19 -65 36 -125 38 -133 6 -25 115 -410 140 -495 13 -44
30 -105 39 -135 8 -30 37 -136 66 -235 28 -99 53 -187 55 -195 2 -8 31 -112
65 -230 34 -118 86 -303 116 -410 30 -107 64 -226 76 -265 11 -38 22 -77 23
-85 5 -24 223 -791 235 -827 6 -18 13 -40 15 -50 2 -10 23 -84 46 -165 l41
-148 242 0 242 0 58 197 c31 109 61 209 66 223 5 14 77 257 160 540 84 283
174 589 201 680 28 91 52 172 54 180 2 8 51 177 110 375 59 198 112 376 117
395 23 82 79 265 83 268 3 3 12 -19 20 -55 3 -10 13 -47 24 -83 11 -36 74
-249 141 -475 67 -225 137 -462 156 -525 19 -63 37 -122 39 -130 2 -8 45 -154
95 -325 50 -170 107 -362 125 -425 19 -63 53 -176 75 -250 22 -74 42 -142 45
-150 2 -8 31 -111 66 -227 l63 -213 242 0 c222 0 242 1 247 18 2 9 30 105 62
212 31 107 61 209 65 225 7 27 66 230 206 710 25 83 46 157 48 165 2 8 25 87
51 175 25 88 48 167 50 175 2 8 69 238 148 510 80 272 195 668 256 880 62 212
114 393 117 403 5 16 -10 17 -214 17 l-219 0 -28 -97 c-15 -54 -38 -136 -51
-183 -12 -47 -54 -197 -92 -335 -88 -315 -248 -886 -312 -1115 -27 -96 -74
-265 -105 -375 -86 -306 -106 -378 -111 -400 -2 -11 -31 -112 -63 -225 l-58
-205 -16 55 c-47 168 -160 559 -168 585 -15 49 -110 379 -114 397 -2 9 -11 41
-20 70 -8 29 -32 109 -51 178 -79 277 -247 861 -275 955 -17 55 -32 109 -35
120 -2 11 -13 49 -23 85 -16 52 -78 266 -133 458 l-9 32 -232 0 -232 0 -33
-113 c-77 -267 -339 -1161 -427 -1462 -25 -82 -110 -375 -190 -650 -80 -275
-156 -536 -170 -581 -14 -44 -25 -86 -25 -94 0 -39 -23 20 -45 114 -4 17 -35
131 -65 236 -18 62 -77 276 -194 705 -64 231 -120 436 -126 455 -6 19 -42 150
-80 290 -38 140 -74 271 -80 290 -15 53 -71 253 -75 270 -1 8 -24 92 -50 185
-26 94 -59 212 -73 263 l-25 92 -222 0 -223 0 35 -117z"/>
<path d="M6380 2155 l0 -1745 213 2 212 3 0 758 0 757 823 0 822 0 1 28 c1 26
0 315 -1 340 0 9 -171 12 -823 12 l-822 0 0 598 0 597 910 2 c501 1 917 2 926
2 15 1 17 22 17 196 l0 195 -1139 0 -1139 0 0 -1745z"/>
<path d="M5640 1660 l0 -1250 203 2 202 3 0 1248 0 1247 -202 0 -203 0 0
-1250z"/>
<path d="M8960 1660 l0 -1250 203 0 202 0 0 1250 0 1250 -202 0 -203 0 0
-1250z"/>
</g>
</svg>
